<mxfile modified="2020-07-30T07:50:50.241Z" host="app.diagrams.net" agent="5.0 (Windows NT 6.1; Win64; x64) AppleWebKit/537.36 (KHTML, like Gecko) Chrome/84.0.4147.105 Safari/537.36" etag="2jDjIzVctv-uYbRqiD7V" version="13.5.5" type="github">
  <diagram id="WI9T0HZ2pTsCkuznbFz-" name="Page-1">
    <mxGraphModel dx="868" dy="482" grid="1" gridSize="10" guides="1" tooltips="1" connect="1" arrows="1" fold="1" page="1" pageScale="1" pageWidth="1169" pageHeight="827" math="0" shadow="0">
      <root>
        <mxCell id="0" />
        <mxCell id="1" parent="0" />
        <mxCell id="Y2VCf23oWZ-3gwaq7TBd-29" style="edgeStyle=orthogonalEdgeStyle;curved=1;rounded=0;orthogonalLoop=1;jettySize=auto;html=1;" parent="1" source="RLjyjs_sm2IHfBNOWAbh-13" target="Y2VCf23oWZ-3gwaq7TBd-25" edge="1">
          <mxGeometry relative="1" as="geometry" />
        </mxCell>
        <mxCell id="RLjyjs_sm2IHfBNOWAbh-13" value="停车管理" style="shape=image;verticalLabelPosition=bottom;labelBackgroundColor=#ffffff;verticalAlign=top;aspect=fixed;imageAspect=0;image=data:image/svg+xml,PHN2ZyB4bWxuczpkYz0iaHR0cDovL3B1cmwub3JnL2RjL2VsZW1lbnRzLzEuMS8iIHhtbG5zOmNjPSJodHRwOi8vY3JlYXRpdmVjb21tb25zLm9yZy9ucyMiIHhtbG5zOnJkZj0iaHR0cDovL3d3dy53My5vcmcvMTk5OS8wMi8yMi1yZGYtc3ludGF4LW5zIyIgeG1sbnM6c3ZnPSJodHRwOi8vd3d3LnczLm9yZy8yMDAwL3N2ZyIgeG1sbnM9Imh0dHA6Ly93d3cudzMub3JnLzIwMDAvc3ZnIiB4bWxuczp4bGluaz0iaHR0cDovL3d3dy53My5vcmcvMTk5OS94bGluayIgeG1sbnM6c29kaXBvZGk9Imh0dHA6Ly9zb2RpcG9kaS5zb3VyY2Vmb3JnZS5uZXQvRFREL3NvZGlwb2RpLTAuZHRkIiB4bWxuczppbmtzY2FwZT0iaHR0cDovL3d3dy5pbmtzY2FwZS5vcmcvbmFtZXNwYWNlcy9pbmtzY2FwZSIgdmVyc2lvbj0iMS4xIiBpZD0iTGF5ZXJfMSIgeD0iMHB4IiB5PSIwcHgiIHZpZXdCb3g9IjAgMCA0Ny45NTM3NyA0Ny45NDAzNjkiIHhtbDpzcGFjZT0icHJlc2VydmUiIHNvZGlwb2RpOmRvY25hbWU9ImRldm9wc19zaGlwcGluZy5zdmciIHdpZHRoPSI0Ny45NTM3NyIgaGVpZ2h0PSI0Ny45NDAzNjkiIGlua3NjYXBlOnZlcnNpb249IjAuOTIuMyAoMjQwNTU0NiwgMjAxOC0wMy0xMSkiPjxtZXRhZGF0YSBpZD0ibWV0YWRhdGE0NjI2NyI+PHJkZjpSREY+PGNjOldvcmsgcmRmOmFib3V0PSIiPjxkYzpmb3JtYXQ+aW1hZ2Uvc3ZnK3htbDwvZGM6Zm9ybWF0PjxkYzp0eXBlIHJkZjpyZXNvdXJjZT0iaHR0cDovL3B1cmwub3JnL2RjL2RjbWl0eXBlL1N0aWxsSW1hZ2UiLz48ZGM6dGl0bGUvPjwvY2M6V29yaz48L3JkZjpSREY+PC9tZXRhZGF0YT48ZGVmcyBpZD0iZGVmczQ2MjY1Ii8+PHNvZGlwb2RpOm5hbWVkdmlldyBwYWdlY29sb3I9IiNmZmZmZmYiIGJvcmRlcmNvbG9yPSIjNjY2NjY2IiBib3JkZXJvcGFjaXR5PSIxIiBvYmplY3R0b2xlcmFuY2U9IjEwIiBncmlkdG9sZXJhbmNlPSIxMCIgZ3VpZGV0b2xlcmFuY2U9IjEwIiBpbmtzY2FwZTpwYWdlb3BhY2l0eT0iMCIgaW5rc2NhcGU6cGFnZXNoYWRvdz0iMiIgaW5rc2NhcGU6d2luZG93LXdpZHRoPSIxOTIwIiBpbmtzY2FwZTp3aW5kb3ctaGVpZ2h0PSIxMDE3IiBpZD0ibmFtZWR2aWV3NDYyNjMiIHNob3dncmlkPSJmYWxzZSIgZml0LW1hcmdpbi10b3A9IjAiIGZpdC1tYXJnaW4tbGVmdD0iMCIgZml0LW1hcmdpbi1yaWdodD0iMCIgZml0LW1hcmdpbi1ib3R0b209IjAiIGlua3NjYXBlOnpvb209IjEuMDMwMzAzIiBpbmtzY2FwZTpjeD0iLTYuNzg1MDAzNyIgaW5rc2NhcGU6Y3k9Ii0zMTAuNDQ5NjMiIGlua3NjYXBlOndpbmRvdy14PSItOCIgaW5rc2NhcGU6d2luZG93LXk9Ii04IiBpbmtzY2FwZTp3aW5kb3ctbWF4aW1pemVkPSIxIiBpbmtzY2FwZTpjdXJyZW50LWxheWVyPSJMYXllcl8xIi8+JiN4YTsmI3hhOzxnIGlkPSJnNDYyNjAiIHRyYW5zZm9ybT0idHJhbnNsYXRlKC0zMDQuMTYsLTYyLjM2MDAwMSkiPiYjeGE7CTxkZWZzIGlkPSJkZWZzNDYyMTkiPiYjeGE7CQk8cmVjdCBpZD0iU1ZHSURfM18iIHg9IjMwNC4xNiIgeT0iNjIuMzYwMDAxIiB3aWR0aD0iNDguMTYiIGhlaWdodD0iNDguMTYiLz4mI3hhOwk8L2RlZnM+JiN4YTsJPGNsaXBQYXRoIGlkPSJTVkdJRF80XyI+JiN4YTsJCTx1c2UgeGxpbms6aHJlZj0iI1NWR0lEXzNfIiBzdHlsZT0ib3ZlcmZsb3c6dmlzaWJsZSIgaWQ9InVzZTQ2MjIxIiB4PSIwIiB5PSIwIiB3aWR0aD0iMTAwJSIgaGVpZ2h0PSIxMDAlIi8+JiN4YTsJPC9jbGlwUGF0aD4mI3hhOwk8ZyBjbGlwLXBhdGg9InVybCgjU1ZHSURfNF8pIiBpZD0iZzQ2MjU4Ij4mI3hhOwkJPGRlZnMgaWQ9ImRlZnM0NjIyNSI+JiN4YTsJCQk8cmVjdCBpZD0iU1ZHSURfNV8iIHg9IjMwNC4xNiIgeT0iNjIuMzYwMDAxIiB3aWR0aD0iNDguMTYiIGhlaWdodD0iNDguMTYiLz4mI3hhOwkJPC9kZWZzPiYjeGE7CQk8Y2xpcFBhdGggaWQ9IlNWR0lEXzZfIj4mI3hhOwkJCTx1c2UgeGxpbms6aHJlZj0iI1NWR0lEXzVfIiBzdHlsZT0ib3ZlcmZsb3c6dmlzaWJsZSIgaWQ9InVzZTQ2MjI3IiB4PSIwIiB5PSIwIiB3aWR0aD0iMTAwJSIgaGVpZ2h0PSIxMDAlIi8+JiN4YTsJCTwvY2xpcFBhdGg+JiN4YTsJCTxwYXRoIHN0eWxlPSJmaWxsOiNmZmZmZmYiIGQ9Im0gMzI4LjEzLDEwOS45NCBjIC05LjUzLDAgLTE4LjE2LC01Ljc1IC0yMS44MSwtMTQuNTYgLTMuNjYsLTguODEgLTEuNjIsLTE5IDUuMTUsLTI1LjcxIDYuNzEsLTYuNzcgMTYuOSwtOC44MSAyNS43MSwtNS4xNSA4LjgxLDMuNjYgMTQuNTYsMTIuMjkgMTQuNTYsMjEuODEgLTAuMDYsMTMgLTEwLjYxLDIzLjU1IC0yMy42MSwyMy42MSB6IiBjbGlwLXBhdGg9InVybCgjU1ZHSURfNl8pIiBpZD0icGF0aDQ2MjMwIiBpbmtzY2FwZTpjb25uZWN0b3ItY3VydmF0dXJlPSIwIi8+JiN4YTsJCTxwYXRoIHN0eWxlPSJmaWxsOiNlNWU1ZTUiIGQ9Im0gMzI4LjEzLDEwOS41OCBjIC02Ljg5LDAgLTEzLjM2LC0zLjA2IC0xNy44LC04LjMzIC0wLjY2LC0wLjg0IC0xLjMyLC0xLjY4IC0xLjg2LC0yLjU4IC0wLjQ4LC0wLjcyIC0wLjg0LC0xLjQ0IC0xLjIsLTIuMTYgbCAtMC4xMiwtMC4xMiBjIC0wLjEyLC0wLjI0IC0wLjE4LC0wLjQyIC0wLjMsLTAuNiBsIC0wLjEyLC0wLjQ4IGMgLTAuNDgsLTAuOTYgLTAuNzgsLTEuOTggLTEuMDgsLTMgLTAuNDIsLTEuNSAtMC42NiwtMyAtMC43MiwtNC40OSBoIDQ2LjM4IGMgLTAuNzcsMTIuMjMgLTEwLjk2LDIxLjc2IC0yMy4xOCwyMS43NiB6IiBjbGlwLXBhdGg9InVybCgjU1ZHSURfNl8pIiBpZD0icGF0aDQ2MjMyIiBpbmtzY2FwZTpjb25uZWN0b3ItY3VydmF0dXJlPSIwIi8+JiN4YTsJCTxwb2x5Z29uIHN0eWxlPSJmaWxsOiNmZmZmZmYiIHBvaW50cz0iMzMxLjksNzguODQgMzMxLjksOTMuMSAzNDMuODksOTMuMSAzNDMuODksODQuMjkgMzM5LjIyLDc4Ljg0ICIgY2xpcC1wYXRoPSJ1cmwoI1NWR0lEXzZfKSIgaWQ9InBvbHlnb240NjIzNCIvPiYjeGE7CQk8cG9seWdvbiBzdHlsZT0iZmlsbDojMmJjN2Y0IiBwb2ludHM9IjMzNC45LDg1LjYxIDMzNC45LDc5LjYyIDMzOS40LDc5LjYyIDM0My4xMSw4My43NSAzNDMuODksODUuNjEgIiBjbGlwLXBhdGg9InVybCgjU1ZHSURfNl8pIiBpZD0icG9seWdvbjQ2MjM2Ii8+JiN4YTsJCTxwYXRoIHN0eWxlPSJmaWxsOiM1NTZhOGEiIGQ9Im0gMzQ0LjY0LDkzLjEgLTAuNzUsMC43NSBIIDMzMS45IEwgMzMxLjE1LDkzLjEgViA3OC44NCBsIDAuNzUsLTAuNzUgaCA3LjMxIGwgMC41NywwLjI2IDQuNjcsNS40NSAwLjE4LDAuNDkgdiA4LjgxIHogbSAtMS41LC04LjgxIDAuMTgsMC40OSAtNC42NywtNS40NSAwLjU3LDAuMjYgaCAtNy4zMSBsIDAuNzUsLTAuNzUgViA5My4xIGwgLTAuNzUsLTAuNzUgaCAxMS45OCBsIC0wLjc1LDAuNzUgeiIgY2xpcC1wYXRoPSJ1cmwoI1NWR0lEXzZfKSIgaWQ9InBhdGg0NjIzOCIgaW5rc2NhcGU6Y29ubmVjdG9yLWN1cnZhdHVyZT0iMCIvPiYjeGE7CQk8cmVjdCB4PSIzMTMuMTQ5OTkiIHk9Ijc1LjEyMDAwMyIgc3R5bGU9ImZpbGw6I2ZmZmZmZiIgd2lkdGg9IjIxLjc1IiBoZWlnaHQ9IjE3Ljk4IiBjbGlwLXBhdGg9InVybCgjU1ZHSURfNl8pIiBpZD0icmVjdDQ2MjQwIi8+JiN4YTsJCTxwYXRoIHN0eWxlPSJmaWxsOiM1NTZhOGEiIGQ9Im0gMzEzLjksOTMuMSAtMC43NSwtMC43NSBoIDIxLjc1IGwgLTAuNzUsMC43NSBWIDc1LjEyIGwgMC43NSwwLjc1IGggLTIxLjc1IGwgMC43NSwtMC43NSB6IG0gLTEuNSwtMTcuOTggMC43NSwtMC43NSBoIDIxLjc1IGwgMC43NSwwLjc1IFYgOTMuMSBsIC0wLjc1LDAuNzUgSCAzMTMuMTUgTCAzMTIuNCw5My4xIFoiIGNsaXAtcGF0aD0idXJsKCNTVkdJRF82XykiIGlkPSJwYXRoNDYyNDIiIGlua3NjYXBlOmNvbm5lY3Rvci1jdXJ2YXR1cmU9IjAiLz4mI3hhOwkJPGNpcmNsZSBzdHlsZT0iZmlsbDojZmZmZmZmIiBjeD0iMzE5LjkyMDAxIiBjeT0iOTQuNjYwMDA0IiByPSI0LjQ4OTk5OTgiIGNsaXAtcGF0aD0idXJsKCNTVkdJRF82XykiIGlkPSJjaXJjbGU0NjI0NCIvPiYjeGE7CQk8cGF0aCBzdHlsZT0iZmlsbDojNTU2YThhIiBkPSJtIDMyMy42NCw5NC4yNCAwLjAxLDAuMDggLTAuMDcsLTAuNDQgMC4wMywwLjEyIC0wLjI3LC0wLjg0IDAuMDUsMC4xMyAtMC40MSwtMC43NiAwLjA4LDAuMTIgLTAuNTUsLTAuNjcgMC4xLDAuMSAtMC42NywtMC41NSAwLjEyLDAuMDggLTAuNzYsLTAuNDEgMC4xMywwLjA1IC0wLjg0LC0wLjI3IDAuMTIsMC4wMyAtMC40NCwtMC4wNyAwLjA4LDAuMDEgLTAuNDYsLTAuMDIgaCAwLjA3IGwgLTAuNDYsMC4wMiAwLjA3LC0wLjAxIC0wLjQ1LDAuMDYgMC4xMiwtMC4wMyAtMC44NSwwLjI3IDAuMTMsLTAuMDUgLTAuNzYsMC40MSAwLjEyLC0wLjA4IC0wLjY3LDAuNTUgMC4xLC0wLjEgLTAuNTUsMC42NyAwLjA4LC0wLjEyIC0wLjQsMC43NiAwLjA1LC0wLjEzIC0wLjI2LDAuODQgMC4wMiwtMC4xMSAtMC4wNywwLjQ0IDAuMDEsLTAuMDggLTAuMDIsMC40NiB2IC0wLjA3IGwgMC4wMiwwLjQ2IC0wLjAxLC0wLjA3IDAuMDcsMC40NSAtMC4wMiwtMC4xMSAwLjI2LDAuODUgLTAuMDUsLTAuMTMgMC40LDAuNzYgLTAuMDgsLTAuMTMgMC41NSwwLjY2IC0wLjEsLTAuMSAwLjY3LDAuNTUgLTAuMTIsLTAuMDggMC43NiwwLjQxIC0wLjE0LC0wLjA2IDAuODUsMC4yNSAtMC4xLC0wLjAyIDAuNDUsMC4wNyAtMC4wNywtMC4wMSAwLjQ2LDAuMDIgaCAtMC4wNyBsIDAuNDYsLTAuMDIgLTAuMDgsMC4wMSAwLjQ0LC0wLjA3IC0wLjEsMC4wMiAwLjg0LC0wLjI1IC0wLjE0LDAuMDYgMC43NiwtMC40MSAtMC4xMiwwLjA4IDAuNjcsLTAuNTUgLTAuMSwwLjEgMC41NSwtMC42NiAtMC4wOSwwLjEzIDAuNDEsLTAuNzYgLTAuMDUsMC4xMyAwLjI3LC0wLjg1IC0wLjAzLDAuMTEgMC4wNywtMC40NSAtMC4wMSwwLjA3IDAuMDIsLTAuNDYgdiAwLjA3IHogbSAxLjUyLDAuMzggdiAwLjA3IGwgLTAuMDIsMC40NiAtMC4wMSwwLjA3IC0wLjA3LDAuNDUgLTAuMDMsMC4xMSAtMC4yNywwLjg1IC0wLjA1LDAuMTMgLTAuNDEsMC43NiAtMC4wOSwwLjEzIC0wLjU1LDAuNjYgLTAuMSwwLjEgLTAuNjcsMC41NSAtMC4xMiwwLjA4IC0wLjc2LDAuNDEgLTAuMTQsMC4wNiAtMC44NCwwLjI1IC0wLjEsMC4wMiAtMC40NCwwLjA3IC0wLjA4LDAuMDEgLTAuNDYsMC4wMiBoIC0wLjA3IGwgLTAuNDYsLTAuMDIgLTAuMDcsLTAuMDEgLTAuNDUsLTAuMDcgLTAuMSwtMC4wMiAtMC44NSwtMC4yNSAtMC4xNCwtMC4wNiAtMC43NiwtMC40MSAtMC4xMiwtMC4wOCAtMC42NywtMC41NSAtMC4xLC0wLjEgLTAuNTUsLTAuNjYgLTAuMDgsLTAuMTMgLTAuNCwtMC43NiAtMC4wNSwtMC4xMyAtMC4yNiwtMC44NSAtMC4wMiwtMC4xMSAtMC4wNywtMC40NSAtMC4wMSwtMC4wNyAtMC4wMiwtMC40NiB2IC0wLjA3IGwgMC4wMiwtMC40NiAwLjAxLC0wLjA4IDAuMDcsLTAuNDQgMC4wMiwtMC4xMSAwLjI2LC0wLjg0IDAuMDUsLTAuMTMgMC40LC0wLjc2IDAuMDgsLTAuMTIgMC41NSwtMC42NyAwLjEsLTAuMSAwLjY3LC0wLjU1IDAuMTIsLTAuMDggMC43NiwtMC40MSAwLjEzLC0wLjA1IDAuODUsLTAuMjcgMC4xMiwtMC4wMyAwLjQ1LC0wLjA3IDAuMDcsLTAuMDEgMC40NiwtMC4wMiBoIDAuMDcgbCAwLjQ2LDAuMDIgMC4wOCwwLjAxIDAuNDQsMC4wNyAwLjEyLDAuMDMgMC44NCwwLjI3IDAuMTMsMC4wNSAwLjc2LDAuNDEgMC4xMiwwLjA4IDAuNjcsMC41NSAwLjEsMC4xIDAuNTUsMC42NyAwLjA4LDAuMTIgMC40MSwwLjc2IDAuMDUsMC4xMyAwLjI3LDAuODQgMC4wMywwLjEyIDAuMDcsMC40NCAwLjAxLDAuMDggeiIgY2xpcC1wYXRoPSJ1cmwoI1NWR0lEXzZfKSIgaWQ9InBhdGg0NjI0NiIgaW5rc2NhcGU6Y29ubmVjdG9yLWN1cnZhdHVyZT0iMCIvPiYjeGE7CQk8cGF0aCBzdHlsZT0iZmlsbDojMmJjN2Y0IiBkPSJtIDMyMS40Miw5NC42NiBjIDAsMC44NCAtMC43MiwxLjUgLTEuNSwxLjUgLTAuODQsMCAtMS41LC0wLjY2IC0xLjUsLTEuNSAwLC0wLjg0IDAuNjYsLTEuNSAxLjUsLTEuNSAwLjc4LDAgMS41LDAuNjYgMS41LDEuNSB6IiBjbGlwLXBhdGg9InVybCgjU1ZHSURfNl8pIiBpZD0icGF0aDQ2MjQ4IiBpbmtzY2FwZTpjb25uZWN0b3ItY3VydmF0dXJlPSIwIi8+JiN4YTsJCTxjaXJjbGUgc3R5bGU9ImZpbGw6I2ZmZmZmZiIgY3g9IjMzNC44OTk5OSIgY3k9Ijk0LjY2MDAwNCIgcj0iNC40ODk5OTk4IiBjbGlwLXBhdGg9InVybCgjU1ZHSURfNl8pIiBpZD0iY2lyY2xlNDYyNTAiLz4mI3hhOwkJPHBhdGggc3R5bGU9ImZpbGw6IzU1NmE4YSIgZD0ibSAzMzguNjIsOTQuMjQgMC4wMSwwLjA4IC0wLjA3LC0wLjQ0IDAuMDMsMC4xMiAtMC4yNywtMC44NCAwLjA1LDAuMTMgLTAuNDEsLTAuNzYgMC4wOCwwLjEyIC0wLjU1LC0wLjY3IDAuMSwwLjEgLTAuNjcsLTAuNTUgMC4xMiwwLjA4IC0wLjc2LC0wLjQxIDAuMTMsMC4wNSAtMC44NCwtMC4yNyAwLjEyLDAuMDMgLTAuNDQsLTAuMDcgMC4wOCwwLjAxIC0wLjQ2LC0wLjAyIGggMC4wNyBsIC0wLjQ2LDAuMDIgMC4wNywtMC4wMSAtMC40NSwwLjA2IDAuMTIsLTAuMDMgLTAuODUsMC4yNyAwLjEzLC0wLjA1IC0wLjc2LDAuNDEgMC4xMiwtMC4wOCAtMC42NywwLjU1IDAuMSwtMC4xIC0wLjU1LDAuNjcgMC4wOCwtMC4xMiAtMC40LDAuNzYgMC4wNSwtMC4xMyAtMC4yNiwwLjg0IDAuMDIsLTAuMTEgLTAuMDcsMC40NCAwLjAxLC0wLjA4IC0wLjAyLDAuNDYgdiAtMC4wNyBsIDAuMDIsMC40NiAtMC4wMSwtMC4wNyAwLjA3LDAuNDUgLTAuMDIsLTAuMTEgMC4yNiwwLjg1IC0wLjA1LC0wLjEzIDAuNCwwLjc2IC0wLjA4LC0wLjEzIDAuNTUsMC42NiAtMC4xLC0wLjEgMC42NywwLjU1IC0wLjEyLC0wLjA4IDAuNzYsMC40MSAtMC4xNCwtMC4wNiAwLjg1LDAuMjUgLTAuMSwtMC4wMiAwLjQ1LDAuMDcgLTAuMDcsLTAuMDEgMC40NiwwLjAyIGggLTAuMDcgbCAwLjQ2LC0wLjAyIC0wLjA4LDAuMDEgMC40NCwtMC4wNyAtMC4xLDAuMDIgMC44NCwtMC4yNSAtMC4xNCwwLjA2IDAuNzYsLTAuNDEgLTAuMTIsMC4wOCAwLjY3LC0wLjU1IC0wLjEsMC4xIDAuNTUsLTAuNjYgLTAuMDksMC4xMyAwLjQxLC0wLjc2IC0wLjA1LDAuMTMgMC4yNywtMC44NSAtMC4wMywwLjExIDAuMDcsLTAuNDUgLTAuMDEsMC4wNyAwLjAyLC0wLjQ2IHYgMC4wNyB6IG0gMS41MiwwLjM4IHYgMC4wNyBsIC0wLjAyLDAuNDYgLTAuMDEsMC4wNyAtMC4wNywwLjQ1IC0wLjAzLDAuMTEgLTAuMjcsMC44NSAtMC4wNSwwLjEzIC0wLjQxLDAuNzYgLTAuMDksMC4xMyAtMC41NSwwLjY2IC0wLjEsMC4xIC0wLjY3LDAuNTUgLTAuMTIsMC4wOCAtMC43NiwwLjQxIC0wLjE0LDAuMDYgLTAuODQsMC4yNSAtMC4xLDAuMDIgLTAuNDQsMC4wNyAtMC4wOCwwLjAxIC0wLjQ2LDAuMDIgaCAtMC4wNyBsIC0wLjQ2LC0wLjAyIC0wLjA3LC0wLjAxIC0wLjQ1LC0wLjA3IC0wLjEsLTAuMDIgLTAuODUsLTAuMjUgLTAuMTQsLTAuMDYgLTAuNzYsLTAuNDEgLTAuMTIsLTAuMDggLTAuNjcsLTAuNTUgLTAuMSwtMC4xIC0wLjU1LC0wLjY2IC0wLjA4LC0wLjEzIC0wLjQsLTAuNzYgLTAuMDUsLTAuMTMgLTAuMjYsLTAuODUgLTAuMDIsLTAuMTEgLTAuMDcsLTAuNDUgLTAuMDEsLTAuMDcgLTAuMDIsLTAuNDYgdiAtMC4wNyBsIDAuMDIsLTAuNDYgMC4wMSwtMC4wOCAwLjA3LC0wLjQ0IDAuMDIsLTAuMTEgMC4yNiwtMC44NCAwLjA1LC0wLjEzIDAuNCwtMC43NiAwLjA4LC0wLjEyIDAuNTUsLTAuNjcgMC4xLC0wLjEgMC42NywtMC41NSAwLjEyLC0wLjA4IDAuNzYsLTAuNDEgMC4xMywtMC4wNSAwLjg1LC0wLjI3IDAuMTIsLTAuMDMgMC40NSwtMC4wNyAwLjA3LC0wLjAxIDAuNDYsLTAuMDIgaCAwLjA3IGwgMC40NiwwLjAyIDAuMDgsMC4wMSAwLjQ0LDAuMDcgMC4xMiwwLjAzIDAuODQsMC4yNyAwLjEzLDAuMDUgMC43NiwwLjQxIDAuMTIsMC4wOCAwLjY3LDAuNTUgMC4xLDAuMSAwLjU1LDAuNjcgMC4wOCwwLjEyIDAuNDEsMC43NiAwLjA1LDAuMTMgMC4yNywwLjg0IDAuMDMsMC4xMiAwLjA3LDAuNDQgMC4wMSwwLjA4IHoiIGNsaXAtcGF0aD0idXJsKCNTVkdJRF82XykiIGlkPSJwYXRoNDYyNTIiIGlua3NjYXBlOmNvbm5lY3Rvci1jdXJ2YXR1cmU9IjAiLz4mI3hhOwkJPHBhdGggc3R5bGU9ImZpbGw6IzJiYzdmNCIgZD0ibSAzMzYuNCw5NC42NiBjIDAsMC44NCAtMC43MiwxLjUgLTEuNSwxLjUgLTAuODQsMCAtMS41LC0wLjY2IC0xLjUsLTEuNSAwLC0wLjg0IDAuNjYsLTEuNSAxLjUsLTEuNSAwLjc4LDAgMS41LDAuNjYgMS41LDEuNSB6IiBjbGlwLXBhdGg9InVybCgjU1ZHSURfNl8pIiBpZD0icGF0aDQ2MjU0IiBpbmtzY2FwZTpjb25uZWN0b3ItY3VydmF0dXJlPSIwIi8+JiN4YTsJCTxwYXRoIHN0eWxlPSJmaWxsOiM1NTZhOGEiIGQ9Im0gMzI4LjEzLDYyLjM2IGMgLTE1Ljc2LDAgLTI3LjIxLDE0LjkyIC0yMy4xOSwzMC4xNCAwLjMsMS4wMiAwLjY2LDIuMSAxLjA4LDMuMTIgMC4xOCwwLjQyIDAuMzYsMC44NCAwLjU0LDEuMiAwLjM2LDAuNzggMC43OCwxLjU2IDEuMjYsMi4yOCAwLjYsMC45IDEuMjYsMS44IDEuOTIsMi42NCAxMS4yNywxMy40MiAzMi43MiwxMC42MSA0MC4wOSwtNS4yNyA3LjQyLC0xNS44OSAtNC4xNCwtMzQuMTEgLTIxLjcsLTM0LjExIHogbSAwLDEuNSBjIDE2LjQyLDAgMjcuMzMsMTcuMDggMjAuMzcsMzIgLTYuOTUsMTQuODYgLTI3LjAzLDE3LjUgLTM3LjU3LDQuOTEgLTAuNzIsLTAuNzggLTEuMzIsLTEuNjIgLTEuODYsLTIuNTIgLTAuNDIsLTAuNjYgLTAuODQsLTEuMzggLTEuMTQsLTIuMSAtMC4yNCwtMC40MiAtMC40MiwtMC43OCAtMC41NCwtMS4xNCAtMC40MiwtMC45NiAtMC43MiwtMS45MiAtMC45NiwtMi45NCAtMy44MywtMTQuMjUgNi45NiwtMjguMjEgMjEuNywtMjguMjEgeiIgY2xpcC1wYXRoPSJ1cmwoI1NWR0lEXzZfKSIgaWQ9InBhdGg0NjI1NiIgaW5rc2NhcGU6Y29ubmVjdG9yLWN1cnZhdHVyZT0iMCIvPiYjeGE7CTwvZz4mI3hhOzwvZz4mI3hhOzwvc3ZnPg==;fillColor=#4D9900;" parent="1" vertex="1">
          <mxGeometry x="120.00000000000006" y="580" width="48" height="48" as="geometry" />
        </mxCell>
        <mxCell id="RLjyjs_sm2IHfBNOWAbh-24" value="CBI" style="shadow=0;dashed=0;html=1;strokeColor=none;labelPosition=center;verticalLabelPosition=bottom;verticalAlign=top;align=center;shape=mxgraph.mscae.cloud.power_bi_embedded;fillColor=#000000;pointerEvents=1;labelBackgroundColor=#ffffff;spacingTop=7;" parent="1" vertex="1">
          <mxGeometry x="965.4999999999999" y="414" width="47" height="50" as="geometry" />
        </mxCell>
        <mxCell id="Y2VCf23oWZ-3gwaq7TBd-17" style="edgeStyle=orthogonalEdgeStyle;curved=1;rounded=0;orthogonalLoop=1;jettySize=auto;html=1;entryX=1.06;entryY=0.68;entryDx=0;entryDy=0;entryPerimeter=0;" parent="1" source="Y2VCf23oWZ-3gwaq7TBd-1" target="Y2VCf23oWZ-3gwaq7TBd-15" edge="1">
          <mxGeometry relative="1" as="geometry">
            <mxPoint x="990" y="760" as="targetPoint" />
            <Array as="points">
              <mxPoint x="984" y="676" />
              <mxPoint x="990" y="676" />
              <mxPoint x="990" y="764" />
              <mxPoint x="810" y="764" />
              <mxPoint x="810" y="754" />
            </Array>
          </mxGeometry>
        </mxCell>
        <mxCell id="Y2VCf23oWZ-3gwaq7TBd-1" value="数据交换平台" style="shape=image;verticalLabelPosition=bottom;labelBackgroundColor=#ffffff;verticalAlign=top;aspect=fixed;imageAspect=0;image=data:image/svg+xml,PHN2ZyB4bWxuczpkYz0iaHR0cDovL3B1cmwub3JnL2RjL2VsZW1lbnRzLzEuMS8iIHhtbG5zOmNjPSJodHRwOi8vY3JlYXRpdmVjb21tb25zLm9yZy9ucyMiIHhtbG5zOnJkZj0iaHR0cDovL3d3dy53My5vcmcvMTk5OS8wMi8yMi1yZGYtc3ludGF4LW5zIyIgeG1sbnM6c3ZnPSJodHRwOi8vd3d3LnczLm9yZy8yMDAwL3N2ZyIgeG1sbnM9Imh0dHA6Ly93d3cudzMub3JnLzIwMDAvc3ZnIiB4bWxuczp4bGluaz0iaHR0cDovL3d3dy53My5vcmcvMTk5OS94bGluayIgeG1sbnM6c29kaXBvZGk9Imh0dHA6Ly9zb2RpcG9kaS5zb3VyY2Vmb3JnZS5uZXQvRFREL3NvZGlwb2RpLTAuZHRkIiB4bWxuczppbmtzY2FwZT0iaHR0cDovL3d3dy5pbmtzY2FwZS5vcmcvbmFtZXNwYWNlcy9pbmtzY2FwZSIgdmVyc2lvbj0iMS4xIiBpZD0iTGF5ZXJfMSIgeD0iMHB4IiB5PSIwcHgiIHZpZXdCb3g9IjAgMCAzNS45NDI1MDkgMzUuOTUyNTE1IiB4bWw6c3BhY2U9InByZXNlcnZlIiBzb2RpcG9kaTpkb2NuYW1lPSJzYXBfc2VfcmVtb3RlX2RhdGFfc3luYy5zdmciIHdpZHRoPSIzNS45NDI1MDkiIGhlaWdodD0iMzUuOTUyNTE1IiBpbmtzY2FwZTp2ZXJzaW9uPSIwLjkyLjMgKDI0MDU1NDYsIDIwMTgtMDMtMTEpIj48bWV0YWRhdGEgaWQ9Im1ldGFkYXRhNjEyMTMiPjxyZGY6UkRGPjxjYzpXb3JrIHJkZjphYm91dD0iIj48ZGM6Zm9ybWF0PmltYWdlL3N2Zyt4bWw8L2RjOmZvcm1hdD48ZGM6dHlwZSByZGY6cmVzb3VyY2U9Imh0dHA6Ly9wdXJsLm9yZy9kYy9kY21pdHlwZS9TdGlsbEltYWdlIi8+PGRjOnRpdGxlLz48L2NjOldvcms+PC9yZGY6UkRGPjwvbWV0YWRhdGE+PGRlZnMgaWQ9ImRlZnM2MTIxMSIvPjxzb2RpcG9kaTpuYW1lZHZpZXcgcGFnZWNvbG9yPSIjZmZmZmZmIiBib3JkZXJjb2xvcj0iIzY2NjY2NiIgYm9yZGVyb3BhY2l0eT0iMSIgb2JqZWN0dG9sZXJhbmNlPSIxMCIgZ3JpZHRvbGVyYW5jZT0iMTAiIGd1aWRldG9sZXJhbmNlPSIxMCIgaW5rc2NhcGU6cGFnZW9wYWNpdHk9IjAiIGlua3NjYXBlOnBhZ2VzaGFkb3c9IjIiIGlua3NjYXBlOndpbmRvdy13aWR0aD0iMTkyMCIgaW5rc2NhcGU6d2luZG93LWhlaWdodD0iMTAxNyIgaWQ9Im5hbWVkdmlldzYxMjA5IiBzaG93Z3JpZD0iZmFsc2UiIGZpdC1tYXJnaW4tdG9wPSIwIiBmaXQtbWFyZ2luLWxlZnQ9IjAiIGZpdC1tYXJnaW4tcmlnaHQ9IjAiIGZpdC1tYXJnaW4tYm90dG9tPSIwIiBpbmtzY2FwZTp6b29tPSIxLjAzMDMwMyIgaW5rc2NhcGU6Y3g9Ii0xMy44ODUwMSIgaW5rc2NhcGU6Y3k9Ii0xODcuNzc3NDgiIGlua3NjYXBlOndpbmRvdy14PSItOCIgaW5rc2NhcGU6d2luZG93LXk9Ii04IiBpbmtzY2FwZTp3aW5kb3ctbWF4aW1pemVkPSIxIiBpbmtzY2FwZTpjdXJyZW50LWxheWVyPSJMYXllcl8xIi8+JiN4YTsmI3hhOzxnIGlkPSJnNjEyMDYiIHRyYW5zZm9ybT0idHJhbnNsYXRlKC0zMTEuMjYwMDEsLTE5Ny4wMikiPiYjeGE7CTxkZWZzIGlkPSJkZWZzNjExODUiPiYjeGE7CQk8cmVjdCBpZD0iU1ZHSURfM18iIHg9IjMxMS4yNjAwMSIgeT0iMTk3LjAyIiB3aWR0aD0iMzYuODIiIGhlaWdodD0iMzYuODIiLz4mI3hhOwk8L2RlZnM+JiN4YTsJPGNsaXBQYXRoIGlkPSJTVkdJRF80XyI+JiN4YTsJCTx1c2UgeGxpbms6aHJlZj0iI1NWR0lEXzNfIiBzdHlsZT0ib3ZlcmZsb3c6dmlzaWJsZSIgaWQ9InVzZTYxMTg3IiB4PSIwIiB5PSIwIiB3aWR0aD0iMTAwJSIgaGVpZ2h0PSIxMDAlIi8+JiN4YTsJPC9jbGlwUGF0aD4mI3hhOwk8ZyBjbGlwLXBhdGg9InVybCgjU1ZHSURfNF8pIiBpZD0iZzYxMjA0Ij4mI3hhOwkJPGRlZnMgaWQ9ImRlZnM2MTE5MSI+JiN4YTsJCQk8cmVjdCBpZD0iU1ZHSURfNV8iIHg9IjMxMS4yNjAwMSIgeT0iMTk3LjAyIiB3aWR0aD0iMzYuODIiIGhlaWdodD0iMzYuODIiLz4mI3hhOwkJPC9kZWZzPiYjeGE7CQk8Y2xpcFBhdGggaWQ9IlNWR0lEXzZfIj4mI3hhOwkJCTx1c2UgeGxpbms6aHJlZj0iI1NWR0lEXzVfIiBzdHlsZT0ib3ZlcmZsb3c6dmlzaWJsZSIgaWQ9InVzZTYxMTkzIiB4PSIwIiB5PSIwIiB3aWR0aD0iMTAwJSIgaGVpZ2h0PSIxMDAlIi8+JiN4YTsJCTwvY2xpcFBhdGg+JiN4YTsJCTxwYXRoIHN0eWxlPSJmaWxsOiMwMDkyZDEiIGQ9Ik0gMzQyLjcxLDIyOC40NyBIIDMzNiB2IC0yLjIyIGggNi43MSB6IG0gMCwtNC40OSBIIDMzNiB2IC0yLjIyIGggNi43MSB6IG0gMi4yNywtMTEuMjEgaCAtNC40OSB2IDQuNDkgYyAwLDAuNiAtMC4yNCwxLjE0IC0wLjcyLDEuNTYgLTAuNDIsMC40MiAtMS4wMiwwLjY2IC0xLjYyLDAuNjYgaCAtNC40MyB2IDExLjI2IGggMTEuMjYgeiBtIDAsLTIuMjcgYyAwLjU0LDAgMS4xNCwwLjI0IDEuNTYsMC42NiAwLjQyLDAuNDIgMC42NiwwLjk2IDAuNjYsMS42MiB2IDE3Ljk3IGMgMC4wNiwxLjI2IC0wLjk2LDIuMjggLTIuMjIsMi4yMiBoIC0xMS4yNiBjIC0xLjI2LDAuMDYgLTIuMjgsLTAuOTYgLTIuMjIsLTIuMjIgdiAtMTMuNDggbCA2LjcxLC02Ljc3IHoiIGNsaXAtcGF0aD0idXJsKCNTVkdJRF82XykiIGlkPSJwYXRoNjExOTYiIGlua3NjYXBlOmNvbm5lY3Rvci1jdXJ2YXR1cmU9IjAiLz4mI3hhOwkJPHBhdGggc3R5bGU9ImZpbGw6IzAwOTJkMSIgZD0ibSAzMjIuNTIsMjE0Ljk5IGggLTYuNzcgdiAtMi4yMiBoIDYuNzcgeiBtIDAsLTQuNDkgaCAtNi43NyB2IC0yLjIyIGggNi43NyB6IG0gMi4yMiwtMTEuMjEgaCAtNC40OSB2IDQuNDkgYyAwLDAuNiAtMC4yNCwxLjE0IC0wLjY2LDEuNTYgLTAuNDgsMC40MiAtMS4wMiwwLjY2IC0xLjY4LDAuNjYgaCAtNC4zNyB2IDExLjI2IGggMTEuMiB6IG0gMCwtMi4yNyBjIDAuNiwwIDEuMTQsMC4yNCAxLjU2LDAuNjYgMC40OCwwLjQyIDAuNzIsMC45NiAwLjcyLDEuNjIgdiAxNy45NyBjIDAsMS4yNiAtMS4wMiwyLjI4IC0yLjI4LDIuMjIgaCAtMTEuMiBjIC0xLjMyLDAuMDYgLTIuMzQsLTAuOTYgLTIuMjgsLTIuMjIgdiAtMTMuNDggbCA2Ljc3LC02Ljc3IHoiIGNsaXAtcGF0aD0idXJsKCNTVkdJRF82XykiIGlkPSJwYXRoNjExOTgiIGlua3NjYXBlOmNvbm5lY3Rvci1jdXJ2YXR1cmU9IjAiLz4mI3hhOwkJPHBhdGggc3R5bGU9ImZpbGw6IzVhN2E5NCIgZD0ibSAzMTguNTcsMjI2LjI1IGMgMCwyLjc2IDIuMjgsNS4wMyA1LjAzLDUuMDMgaCAzLjQxIHYgMS42OCBoIC0zLjQxIGMgLTAuOSwwIC0xLjgsLTAuMTggLTIuNjQsLTAuNTQgLTAuNzgsLTAuMyAtMS41LC0wLjg0IC0yLjEsLTEuNDQgLTAuNjYsLTAuNiAtMS4xNCwtMS4zOCAtMS40NCwtMi4xNiAtMC4zNiwtMC44NCAtMC41NCwtMS43NCAtMC41NCwtMi41OCBsIDAuMDYsLTAuOSAtMS45OCwyLjI4IGMgLTAuMywwLjM2IC0wLjksMC4zNiAtMS4yLDAgLTAuMzYsLTAuMyAtMC4zNiwtMC44NCAwLC0xLjE0IGwgMi43NiwtMy4xOCBjIDAuNjYsLTAuNiAxLjc0LC0wLjYgMi40LDAgbCAyLjgyLDMuMTggYyAwLjM2LDAuMyAwLjM2LDAuODQgMCwxLjE0IC0wLjM2LDAuNDIgLTAuOSwwLjQyIC0xLjI2LDAgbCAtMS44NiwtMi4yOCB6IiBjbGlwLXBhdGg9InVybCgjU1ZHSURfNl8pIiBpZD0icGF0aDYxMjAwIiBpbmtzY2FwZTpjb25uZWN0b3ItY3VydmF0dXJlPSIwIi8+JiN4YTsJCTxwYXRoIHN0eWxlPSJmaWxsOiM1YTdhOTQiIGQ9Im0gMzM5Ljg5LDIwMy43OSBjIDAuMDYsLTEuMzggLTAuNDgsLTIuNyAtMS40NCwtMy41OSAtMC45NiwtMC45NiAtMi4yOCwtMS41IC0zLjU5LC0xLjUgaCAtMy4zNSB2IC0xLjY4IGggMy4zNSBjIDAuOSwwIDEuOCwwLjE4IDIuNjQsMC41NCAwLjc4LDAuMzYgMS41LDAuODQgMi4xLDEuNDQgMC42NiwwLjYgMS4xNCwxLjM4IDEuNDQsMi4xNiAwLjM2LDAuODQgMC41NCwxLjc0IDAuNTQsMi42NCBsIC0wLjA2LDAuODQgMS45OCwtMi4yOCBjIDAuMywtMC4zNiAwLjksLTAuMzYgMS4yLDAgMC4zNiwwLjMgMC4zNiwwLjg0IDAsMS4xNCBsIC0yLjc2LDMuMTcgYyAtMC42NiwwLjYgLTEuNzQsMC42IC0yLjQsMCBsIC0yLjgyLC0zLjE3IGMgLTAuMzYsLTAuMyAtMC4zNiwtMC44NCAwLC0xLjE0IDAuMzYsLTAuNDIgMC45LC0wLjQyIDEuMjYsMCBsIDEuODYsMi4yOCB6IiBjbGlwLXBhdGg9InVybCgjU1ZHSURfNl8pIiBpZD0icGF0aDYxMjAyIiBpbmtzY2FwZTpjb25uZWN0b3ItY3VydmF0dXJlPSIwIi8+JiN4YTsJPC9nPiYjeGE7PC9nPiYjeGE7PC9zdmc+;" parent="1" vertex="1">
          <mxGeometry x="970" y="610.5" width="49.5" height="49.5" as="geometry" />
        </mxCell>
        <mxCell id="Y2VCf23oWZ-3gwaq7TBd-11" style="edgeStyle=orthogonalEdgeStyle;curved=1;rounded=0;orthogonalLoop=1;jettySize=auto;html=1;entryX=0;entryY=0.76;entryDx=0;entryDy=0;entryPerimeter=0;" parent="1" source="Y2VCf23oWZ-3gwaq7TBd-4" target="RLjyjs_sm2IHfBNOWAbh-24" edge="1">
          <mxGeometry relative="1" as="geometry" />
        </mxCell>
        <mxCell id="Y2VCf23oWZ-3gwaq7TBd-13" style="edgeStyle=orthogonalEdgeStyle;curved=1;rounded=0;orthogonalLoop=1;jettySize=auto;html=1;entryX=0;entryY=0.5;entryDx=0;entryDy=0;" parent="1" source="Y2VCf23oWZ-3gwaq7TBd-4" target="Y2VCf23oWZ-3gwaq7TBd-1" edge="1">
          <mxGeometry relative="1" as="geometry" />
        </mxCell>
        <mxCell id="Y2VCf23oWZ-3gwaq7TBd-4" value="数据中心" style="aspect=fixed;html=1;points=[];align=center;image;fontSize=12;image=img/lib/mscae/Virtual_Datacenter.svg;" parent="1" vertex="1">
          <mxGeometry x="730" y="508.5" width="50" height="50" as="geometry" />
        </mxCell>
        <mxCell id="Y2VCf23oWZ-3gwaq7TBd-9" style="edgeStyle=orthogonalEdgeStyle;curved=1;rounded=0;orthogonalLoop=1;jettySize=auto;html=1;" parent="1" source="Y2VCf23oWZ-3gwaq7TBd-5" target="Y2VCf23oWZ-3gwaq7TBd-6" edge="1">
          <mxGeometry relative="1" as="geometry" />
        </mxCell>
        <mxCell id="Y2VCf23oWZ-3gwaq7TBd-5" value="API接入" style="shape=image;verticalLabelPosition=bottom;labelBackgroundColor=#ffffff;verticalAlign=top;aspect=fixed;imageAspect=0;image=data:image/svg+xml,PHN2ZyB4bWxuczpkYz0iaHR0cDovL3B1cmwub3JnL2RjL2VsZW1lbnRzLzEuMS8iIHhtbG5zOmNjPSJodHRwOi8vY3JlYXRpdmVjb21tb25zLm9yZy9ucyMiIHhtbG5zOnJkZj0iaHR0cDovL3d3dy53My5vcmcvMTk5OS8wMi8yMi1yZGYtc3ludGF4LW5zIyIgeG1sbnM6c3ZnPSJodHRwOi8vd3d3LnczLm9yZy8yMDAwL3N2ZyIgeG1sbnM9Imh0dHA6Ly93d3cudzMub3JnLzIwMDAvc3ZnIiB4bWxuczp4bGluaz0iaHR0cDovL3d3dy53My5vcmcvMTk5OS94bGluayIgeG1sbnM6c29kaXBvZGk9Imh0dHA6Ly9zb2RpcG9kaS5zb3VyY2Vmb3JnZS5uZXQvRFREL3NvZGlwb2RpLTAuZHRkIiB4bWxuczppbmtzY2FwZT0iaHR0cDovL3d3dy5pbmtzY2FwZS5vcmcvbmFtZXNwYWNlcy9pbmtzY2FwZSIgdmVyc2lvbj0iMS4xIiBpZD0iTGF5ZXJfMSIgeD0iMHB4IiB5PSIwcHgiIHZpZXdCb3g9IjAgMCAzNS45Mzk5OTkgMjYuOTUyNTIiIHhtbDpzcGFjZT0icHJlc2VydmUiIHNvZGlwb2RpOmRvY25hbWU9InNhcF9zdHJlYW1pbmdfYW5hbHl0aWNzLnN2ZyIgd2lkdGg9IjM1LjkzOTk5OSIgaGVpZ2h0PSIyNi45NTI1MiIgaW5rc2NhcGU6dmVyc2lvbj0iMC45Mi4zICgyNDA1NTQ2LCAyMDE4LTAzLTExKSI+PG1ldGFkYXRhIGlkPSJtZXRhZGF0YTYxNzY2Ij48cmRmOlJERj48Y2M6V29yayByZGY6YWJvdXQ9IiI+PGRjOmZvcm1hdD5pbWFnZS9zdmcreG1sPC9kYzpmb3JtYXQ+PGRjOnR5cGUgcmRmOnJlc291cmNlPSJodHRwOi8vcHVybC5vcmcvZGMvZGNtaXR5cGUvU3RpbGxJbWFnZSIvPjxkYzp0aXRsZS8+PC9jYzpXb3JrPjwvcmRmOlJERj48L21ldGFkYXRhPjxkZWZzIGlkPSJkZWZzNjE3NjQiLz48c29kaXBvZGk6bmFtZWR2aWV3IHBhZ2Vjb2xvcj0iI2ZmZmZmZiIgYm9yZGVyY29sb3I9IiM2NjY2NjYiIGJvcmRlcm9wYWNpdHk9IjEiIG9iamVjdHRvbGVyYW5jZT0iMTAiIGdyaWR0b2xlcmFuY2U9IjEwIiBndWlkZXRvbGVyYW5jZT0iMTAiIGlua3NjYXBlOnBhZ2VvcGFjaXR5PSIwIiBpbmtzY2FwZTpwYWdlc2hhZG93PSIyIiBpbmtzY2FwZTp3aW5kb3ctd2lkdGg9IjE5MjAiIGlua3NjYXBlOndpbmRvdy1oZWlnaHQ9IjEwMTciIGlkPSJuYW1lZHZpZXc2MTc2MiIgc2hvd2dyaWQ9ImZhbHNlIiBmaXQtbWFyZ2luLXRvcD0iMCIgZml0LW1hcmdpbi1sZWZ0PSIwIiBmaXQtbWFyZ2luLXJpZ2h0PSIwIiBmaXQtbWFyZ2luLWJvdHRvbT0iMCIgaW5rc2NhcGU6em9vbT0iMS4wMzAzMDMiIGlua3NjYXBlOmN4PSItMjAuOTU1IiBpbmtzY2FwZTpjeT0iLTIwMS4wMTc0OCIgaW5rc2NhcGU6d2luZG93LXg9Ii04IiBpbmtzY2FwZTp3aW5kb3cteT0iLTgiIGlua3NjYXBlOndpbmRvdy1tYXhpbWl6ZWQ9IjEiIGlua3NjYXBlOmN1cnJlbnQtbGF5ZXI9IkxheWVyXzEiLz4mI3hhOyYjeGE7PGcgaWQ9Imc2MTc1OSIgdHJhbnNmb3JtPSJ0cmFuc2xhdGUoLTMxOC4zMywtMTkyLjc4KSI+JiN4YTsJPGRlZnMgaWQ9ImRlZnM2MTczNCI+JiN4YTsJCTxyZWN0IGlkPSJTVkdJRF8zXyIgeD0iMzE4LjMyOTk5IiB5PSIxOTIuNzgiIHdpZHRoPSIzNi44MiIgaGVpZ2h0PSIyOC4zMiIvPiYjeGE7CTwvZGVmcz4mI3hhOwk8Y2xpcFBhdGggaWQ9IlNWR0lEXzRfIj4mI3hhOwkJPHVzZSB4bGluazpocmVmPSIjU1ZHSURfM18iIHN0eWxlPSJvdmVyZmxvdzp2aXNpYmxlIiBpZD0idXNlNjE3MzYiIHg9IjAiIHk9IjAiIHdpZHRoPSIxMDAlIiBoZWlnaHQ9IjEwMCUiLz4mI3hhOwk8L2NsaXBQYXRoPiYjeGE7CTxnIGNsaXAtcGF0aD0idXJsKCNTVkdJRF80XykiIGlkPSJnNjE3NTciPiYjeGE7CQk8ZGVmcyBpZD0iZGVmczYxNzQwIj4mI3hhOwkJCTxyZWN0IGlkPSJTVkdJRF81XyIgeD0iMzE4LjMyOTk5IiB5PSIxOTIuNzgiIHdpZHRoPSIzNi44MiIgaGVpZ2h0PSIyOC4zMiIvPiYjeGE7CQk8L2RlZnM+JiN4YTsJCTxjbGlwUGF0aCBpZD0iU1ZHSURfNl8iPiYjeGE7CQkJPHVzZSB4bGluazpocmVmPSIjU1ZHSURfNV8iIHN0eWxlPSJvdmVyZmxvdzp2aXNpYmxlIiBpZD0idXNlNjE3NDIiIHg9IjAiIHk9IjAiIHdpZHRoPSIxMDAlIiBoZWlnaHQ9IjEwMCUiLz4mI3hhOwkJPC9jbGlwUGF0aD4mI3hhOwkJPHBhdGggc3R5bGU9ImZpbGw6IzAwOTJkMSIgZD0ibSAzMjMuNDgsMjEyLjk2IGMgLTAuMywwLjI0IC0wLjMsMC42NiAwLDAuOTYgMC4yNCwwLjI0IDAuNjYsMC4yNCAwLjksMCBsIDIuNTgsLTIuMjIgYyAwLjQ4LC0wLjU0IDAuNDgsLTEuMzggMCwtMS45MiBsIC0yLjU4LC0yLjIyIGMgLTAuMjQsLTAuMjQgLTAuNjYsLTAuMjQgLTAuOSwwIC0wLjMsMC4zIC0wLjMsMC43MiAwLDAuOTYgbCAxLjgsMS41NiAtNi45NSwwLjA2IHYgMS4zMiBoIDYuOTUgeiIgY2xpcC1wYXRoPSJ1cmwoI1NWR0lEXzZfKSIgaWQ9InBhdGg2MTc0NSIgaW5rc2NhcGU6Y29ubmVjdG9yLWN1cnZhdHVyZT0iMCIvPiYjeGE7CQk8cGF0aCBzdHlsZT0iZmlsbDojMDA5MmQxIiBkPSJtIDMyMy40OCwyMDMuOTggYyAtMC4zLDAuMjQgLTAuMywwLjY2IDAsMC45NiAwLjI0LDAuMjQgMC42NiwwLjI0IDAuOSwwIGwgMi41OCwtMi4yMiBjIDAuNDgsLTAuNTQgMC40OCwtMS4zOCAwLC0xLjkyIGwgLTIuNTgsLTIuMjIgYyAtMC4yNCwtMC4yNCAtMC42NiwtMC4yNCAtMC45LDAgLTAuMywwLjMgLTAuMywwLjcyIDAsMC45NiBsIDEuOCwxLjU2IC02Ljk1LDAuMDYgdiAxLjMyIGggNi45NSB6IiBjbGlwLXBhdGg9InVybCgjU1ZHSURfNl8pIiBpZD0icGF0aDYxNzQ3IiBpbmtzY2FwZTpjb25uZWN0b3ItY3VydmF0dXJlPSIwIi8+JiN4YTsJCTxwYXRoIHN0eWxlPSJmaWxsOiMwMDkyZDEiIGQ9Im0gMzUzLjkxLDIwNS4zIC0yLjU4LC0yLjIyIGMgLTAuMjQsLTAuMjQgLTAuNjYsLTAuMjQgLTAuOSwwIC0wLjMsMC4zIC0wLjMsMC43MiAwLDAuOTYgbCAxLjg2LDEuNTYgLTcuMDEsMC4wNiB2IDEuMjYgaCA2Ljk1IGwgLTEuOCwxLjU2IGMgLTAuMywwLjI0IC0wLjMsMC42NiAwLDAuOTYgMC4yNCwwLjI0IDAuNjYsMC4yNCAwLjksMCBsIDIuNTgsLTIuMjIgYyAwLjQ4LC0wLjU1IDAuNDgsLTEuMzkgMCwtMS45MiB6IiBjbGlwLXBhdGg9InVybCgjU1ZHSURfNl8pIiBpZD0icGF0aDYxNzQ5IiBpbmtzY2FwZTpjb25uZWN0b3ItY3VydmF0dXJlPSIwIi8+JiN4YTsJCTxwYXRoIHN0eWxlPSJmaWxsOiMwMDkyZDEiIGQ9Im0gMzMyLjI5LDIxMS42NCBoIC0xLjM4IHYgLTIuNjkgaCAxLjM4IHogbSAwLC04LjA4IGggLTEuMzggdiAtMi42OSBoIDEuMzggeiBtIDYuNzEsMCBoIDIuNyB2IDUuMzkgSCAzMzkgWiBtIC0wLjk2LDYuMzUgYyAwLjI0LDAuMjQgMC42LDAuNDIgMC45NiwwLjQyIGggMi43IGMgMC4zNiwwIDAuNzIsLTAuMTggMC45NiwtMC40MiAwLjI0LC0wLjI0IDAuNDIsLTAuNiAwLjQyLC0wLjk2IHYgLTUuMzkgYyAwLC0wLjM2IC0wLjE4LC0wLjcyIC0wLjQyLC0wLjk2IC0wLjI0LC0wLjI0IC0wLjYsLTAuNDIgLTAuOTYsLTAuMzYgSCAzMzkgYyAtMC43OCwtMC4wNiAtMS4zOCwwLjU0IC0xLjMyLDEuMzIgdiAyLjA0IGggLTEuMzggdiAtMC42NiBjIDAsLTEuNSAtMS4yLC0yLjY5IC0yLjcsLTIuNjkgdiAtMS4zOCBjIDAsLTAuNzIgLTAuNiwtMS4zMiAtMS4zMiwtMS4zMiBoIC0xLjM4IGMgLTAuMzYsLTAuMDYgLTAuNzIsMC4xMiAtMC45NiwwLjM2IC0wLjI0LDAuMjQgLTAuNDIsMC42IC0wLjM2LDAuOTYgdiAyLjY5IGMgLTAuMDYsMC43OCAwLjU0LDEuMzggMS4zMiwxLjM4IGggMS4zOCBjIDAuMywwIDAuNjYsLTAuMTggMC45LC0wLjQyIDAuMywtMC4yNCAwLjQyLC0wLjYgMC40MiwtMC45NiAwLjc4LDAgMS4zOCwwLjYgMS4zOCwxLjM4IHYgMi42OSBjIDAsMC43MiAtMC42LDEuMzggLTEuMzgsMS4zMiAwLC0wLjcyIC0wLjYsLTEuMzIgLTEuMzgsLTEuMzIgaCAtMS4zMiBjIC0wLjM2LC0wLjA2IC0wLjcyLDAuMTIgLTAuOTYsMC4zNiAtMC4yNCwwLjI0IC0wLjQyLDAuNiAtMC4zNiwwLjk2IHYgMi42OSBjIC0wLjA2LDAuNzggMC41NCwxLjM4IDEuMzIsMS4zOCBoIDEuMzggYyAwLjMsMCAwLjY2LC0wLjE4IDAuOSwtMC40MiAwLjMsLTAuMjQgMC40MiwtMC42IDAuNDIsLTAuOTYgdiAtMS4zMiBjIDEuNSwtMC4wNiAyLjcsLTEuMjYgMi43LC0yLjY5IHYgLTAuNzIgaCAxLjM4IHYgMi4wNCBjIC0wLjA2LDAuMzYgMC4xMiwwLjcyIDAuMzYsMC45NiB6IiBjbGlwLXBhdGg9InVybCgjU1ZHSURfNl8pIiBpZD0icGF0aDYxNzUxIiBpbmtzY2FwZTpjb25uZWN0b3ItY3VydmF0dXJlPSIwIi8+JiN4YTsJCTxwYXRoIHN0eWxlPSJmaWxsOiM1YTdhOTQiIGQ9Im0gMzI1LjEsMTk1LjA2IGggMjIuNDYgdiA2LjcxIGggMi4yMiB2IC02LjcxIGMgMCwtMC42NiAtMC4yNCwtMS4yIC0wLjY2LC0xLjYyIC0wLjQyLC0wLjQyIC0xLjAyLC0wLjY2IC0xLjU2LC0wLjY2IEggMzI1LjEgYyAtMS4zMiwtMC4wNiAtMi4zNCwwLjk2IC0yLjI4LDIuMjggdiAyLjIyIGggMi4yOCB6IiBjbGlwLXBhdGg9InVybCgjU1ZHSURfNl8pIiBpZD0icGF0aDYxNzUzIiBpbmtzY2FwZTpjb25uZWN0b3ItY3VydmF0dXJlPSIwIi8+JiN4YTsJCTxwYXRoIHN0eWxlPSJmaWxsOiM1YTdhOTQiIGQ9Ik0gMzQ3LjU2LDIxNy41MSBIIDMyNS4xIHYgLTIuMjggaCAtMi4yOCB2IDIuMjggYyAtMC4wNiwxLjI2IDAuOTYsMi4yOCAyLjI4LDIuMjIgaCAyMi40NiBjIDAuNTQsMCAxLjE0LC0wLjI0IDEuNTYsLTAuNjYgMC40MiwtMC4zNiAwLjY2LC0wLjk2IDAuNjYsLTEuNTYgdiAtNi43NyBoIC0yLjIyIHoiIGNsaXAtcGF0aD0idXJsKCNTVkdJRF82XykiIGlkPSJwYXRoNjE3NTUiIGlua3NjYXBlOmNvbm5lY3Rvci1jdXJ2YXR1cmU9IjAiLz4mI3hhOwk8L2c+JiN4YTs8L2c+JiN4YTs8L3N2Zz4=;" parent="1" vertex="1">
          <mxGeometry x="340" y="497.5" width="66" height="49.5" as="geometry" />
        </mxCell>
        <mxCell id="Y2VCf23oWZ-3gwaq7TBd-10" style="edgeStyle=orthogonalEdgeStyle;curved=1;rounded=0;orthogonalLoop=1;jettySize=auto;html=1;entryX=0;entryY=0.73;entryDx=0;entryDy=0;entryPerimeter=0;" parent="1" source="Y2VCf23oWZ-3gwaq7TBd-6" target="Y2VCf23oWZ-3gwaq7TBd-4" edge="1">
          <mxGeometry relative="1" as="geometry" />
        </mxCell>
        <mxCell id="Y2VCf23oWZ-3gwaq7TBd-6" value="Mysql中间库" style="aspect=fixed;html=1;points=[];align=center;image;fontSize=12;image=img/lib/mscae/Azure_Database_for_MySQL_servers.svg;" parent="1" vertex="1">
          <mxGeometry x="530" y="508.5" width="38" height="50" as="geometry" />
        </mxCell>
        <mxCell id="Y2VCf23oWZ-3gwaq7TBd-15" value="一企一档" style="aspect=fixed;html=1;points=[];align=center;image;fontSize=12;image=img/lib/mscae/AzureFXTEdgeFiler.svg;" parent="1" vertex="1">
          <mxGeometry x="406" y="690" width="50" height="50" as="geometry" />
        </mxCell>
        <mxCell id="Y2VCf23oWZ-3gwaq7TBd-21" style="edgeStyle=orthogonalEdgeStyle;curved=1;rounded=0;orthogonalLoop=1;jettySize=auto;html=1;entryX=0;entryY=0.5;entryDx=0;entryDy=0;" parent="1" source="Y2VCf23oWZ-3gwaq7TBd-20" target="Y2VCf23oWZ-3gwaq7TBd-5" edge="1">
          <mxGeometry relative="1" as="geometry" />
        </mxCell>
        <mxCell id="Y2VCf23oWZ-3gwaq7TBd-20" value="智慧楼宇" style="aspect=fixed;html=1;points=[];align=center;image;fontSize=12;image=img/lib/mscae/Software_as_a_Service.svg;" parent="1" vertex="1">
          <mxGeometry x="130" y="350" width="50" height="50" as="geometry" />
        </mxCell>
        <mxCell id="Y2VCf23oWZ-3gwaq7TBd-28" style="edgeStyle=orthogonalEdgeStyle;curved=1;rounded=0;orthogonalLoop=1;jettySize=auto;html=1;entryX=-0.026;entryY=0.59;entryDx=0;entryDy=0;entryPerimeter=0;" parent="1" source="Y2VCf23oWZ-3gwaq7TBd-25" target="Y2VCf23oWZ-3gwaq7TBd-6" edge="1">
          <mxGeometry relative="1" as="geometry" />
        </mxCell>
        <mxCell id="Y2VCf23oWZ-3gwaq7TBd-25" value="DB接入" style="aspect=fixed;html=1;points=[];align=center;image;fontSize=12;image=img/lib/mscae/Azure_Database_Migration_Services.svg;" parent="1" vertex="1">
          <mxGeometry x="348" y="600" width="50" height="50" as="geometry" />
        </mxCell>
        <mxCell id="f4M9ocFpzu_ZS1TxF2fX-1" value="" style="aspect=fixed;html=1;points=[];align=center;image;fontSize=12;image=img/lib/mscae/Media_On_Demand.svg;" vertex="1" parent="1">
          <mxGeometry x="90" y="730" width="50" height="50" as="geometry" />
        </mxCell>
      </root>
    </mxGraphModel>
  </diagram>
</mxfile>
